<?xml version="1.0" encoding="utf-8"?>
<!-- Generator: Adobe Illustrator 19.0.0, SVG Export Plug-In . SVG Version: 6.00 Build 0)  -->
<svg version="1.1" id="Layer_1" xmlns="http://www.w3.org/2000/svg" xmlns:xlink="http://www.w3.org/1999/xlink" x="0px" y="0px"
	 viewBox="0 0 416 560" style="enable-background:new 0 0 416 560;" xml:space="preserve">
<style type="text/css">
	.st0{fill:#3A493E;}
	.st1{fill:#B3B3B3;}
	.st2{fill:url(#XMLID_33_);}
	.st3{fill:#14C441;}
</style>
<g id="XMLID_2_">
	<g id="XMLID_11_">
		<path id="XMLID_22_" class="st0" d="M19.6,467.6v43.2l24.2-27.7h23.6l-27,28.9l27.3,46.3H44.1l-13.9-25.6c-2.5-4.4-5-6.6-7.5-6.6
			c-2.1,0.4-3.1,1.8-3.1,3.8v28.4H0V458h10.2C15.3,458,19.6,462.5,19.6,467.6z"/>
		<path id="XMLID_19_" class="st0" d="M92.1,500.6H72.5c2.4-14.4,12.5-21.5,30.5-21.5c21.5,0,32.4,7.1,32.9,21.5v26.5
			c0,21.5-13,31.1-34,32.6c-18.7,1.5-31.7-7.2-31.7-24.5c0.4-18.7,14-23.7,33.7-25.6c8.4-1,12.7-3.5,12.7-7.8
			c-0.4-4.4-4.6-6.6-12.7-6.6C97,495.2,93.1,496.9,92.1,500.6z M116.9,526.3V519c-4.6,1.9-9.9,3.5-15.6,4.7
			c-7.8,1.5-11.8,5.2-11.8,10.9c0.4,6.2,3.7,9.1,9.9,9.1C110.2,543.8,116.9,537.3,116.9,526.3z"/>
		<path id="XMLID_17_" class="st0" d="M165.2,508.4v49.8h-19.9v-45.8c0-22.3,11.2-33.3,33.4-33.3c10,0,17.7,2.2,23.3,6.6
			c5.6-4.3,13.3-6.3,23.3-6.3c22.2,0,33.3,11.1,33.2,33.3v45.8h-10.2c-6.5-0.4-9.7-3.5-9.7-9.7v-40.1c-0.4-8.1-4.9-12.1-13.6-12.1
			s-13.1,4-13.3,12.1v49.5H192v-49.8c-0.4-8.1-4.9-12.1-13.6-12.1S165.3,500.3,165.2,508.4z"/>
		<path id="XMLID_14_" class="st0" d="M340.1,519.6c0,26.8-11.9,40.4-35.5,40.4c-23.6,0-35.4-13.6-35.4-40.4
			c0-27.1,11.8-40.5,35.4-40.5C328.2,479.1,340.1,492.5,340.1,519.6z M289.1,519.6c0.1,15.2,5.3,22.8,15.3,22.8c10,0,15-8,15.2-23.4
			c0-15.2-5-22.7-15-22.7C294.3,496.3,289.1,504.2,289.1,519.6z"/>
		<path id="XMLID_12_" class="st0" d="M406,558.2c-6.5-0.4-9.7-3.5-9.7-9.7v-40.1c-0.4-8.1-4.9-12.1-13.6-12.1
			c-8.7,0-13.1,4-13.3,12.1v49.8h-19.9v-45.8c0-22.3,11.2-33.3,33.4-33.3c22.2,0,33.2,11.1,33,33.3v45.8H406z"/>
	</g>
	<g id="XMLID_7_">
		<path id="XMLID_10_" class="st1" d="M218.1,346.2l51.8,53.9c1.7,1.8,4.4,2.8,7.2,2.8h127c7.4,0,11.7-6.7,7.4-11.5L293.7,245.9
			c-2.5-2.8-7.4-2.8-9.8,0.2l-66.3,91.6C215.5,340.3,215.7,343.8,218.1,346.2z"/>
		<linearGradient id="XMLID_33_" gradientUnits="userSpaceOnUse" x1="90.6689" y1="281.1614" x2="90.6689" y2="-166.7938">
			<stop  offset="0" style="stop-color:#145643"/>
			<stop  offset="1" style="stop-color:#14C441"/>
		</linearGradient>
		<path id="XMLID_9_" class="st2" d="M109.2,18.1C99.1,6.6,85.5,0,71.1,0C46.5,0,24.8,19.3,18,47.4c-9.7,40.5-15.5,82-17.4,123.7
			l0,0l13.9,19c24.9,34.2,67.9,35.8,94.7,6.4c4-3.3,7.7-7,11-11l60.4-73.1C180.6,112.4,112.9,21.3,109.2,18.1z"/>
		<path id="XMLID_8_" class="st3" d="M403.9,0H300c-18.2,0-35.2,8.4-44.9,22.3l-74.4,90.1l-60.4,73.1c-3.4,4.1-7.1,7.7-11,11
			c-26.7,29.4-69.8,27.8-94.7-6.4l-13.9-19l0,0l0,0l0,0c-2,43.7,0.3,87.6,6.9,130.8c0,0.1,0,0.2,0,0.3c0.5,3.3,1,6.6,1.6,9.9
			c0.1,0.5,0.2,1.1,0.3,1.6c0.5,2.9,1,5.8,1.5,8.6c0.1,0.7,0.3,1.4,0.4,2.1c0.5,2.8,1.1,5.6,1.6,8.4c0.1,0.7,0.3,1.3,0.4,2
			c0.6,3.1,1.3,6.2,2,9.3c0.1,0.3,0.1,0.5,0.2,0.8c7,31.6,29.7,54.5,56.6,57.5c0.2,0,0.4,0.1,0.6,0.1c1.8,0.2,3.6,0.3,5.4,0.3
			c0,0,0.1,0,0.1,0h0c45.8,0,71.9-25.8,85-43.7L414,16.8C419.2,9.6,413.5,0,403.9,0z"/>
	</g>
</g>
</svg>
