<svg xmlns="http://www.w3.org/2000/svg" xmlns:xlink="http://www.w3.org/1999/xlink" id="Layer_1" width="1529.7" height="283.96">
	<g id="XMLID_903_-5" fill="#616161" transform="matrix(.99987 0 0 .99987 .19 0)">
		<path id="XMLID_914_-7" d="M388.3 82.3v62.3l34.9-40h34l-38.9 41.7 39.3 66.7h-34l-20-37c-3.6-6.4-7.2-9.6-10.8-9.6-3 .6-4.5 2.6-4.5 5.5v41H360V68.4h14.7c7.5 0 13.6 6.4 13.6 13.9z" class="st0"/>
		<path id="XMLID_911_-4" d="M492.9 129.9h-28.3c3.4-20.8 18.1-31 44-31 31 0 46.8 10.2 47.4 31v38.3c0 31-18.7 44.8-49.1 47-27 2.1-45.7-10.4-45.7-35.3.6-27 20.2-34.2 48.7-37 12.1-1.5 18.3-5.1 18.3-11.3-.6-6.4-6.6-9.6-18.3-9.6-10 0-15.5 2.5-17 7.9zm35.7 36.9v-10.4c-6.6 2.8-14.2 5.1-22.5 6.8-11.3 2.1-17 7.4-17 15.7.6 8.9 5.3 13.2 14.2 13.2 15.7 0 25.3-9.3 25.3-25.3z" class="st0"/>
		<path id="XMLID_909_-1" d="M598.3 141.1V213h-28.7v-66.1c0-32.1 16.2-48 48.2-48 14.5 0 25.5 3.2 33.6 9.6 8.1-6.2 19.1-9.1 33.6-9.1 32.1 0 48 15.9 47.8 48v66.1h-14.7c-9.3-.6-14-5.1-14-14v-57.8c-.6-11.7-7-17.4-19.6-17.4-12.5 0-18.9 5.7-19.1 17.4V213H637v-71.8c-.6-11.7-7-17.4-19.6-17.4-12.6 0-18.9 5.6-19.1 17.3z" class="st0"/>
		<path id="XMLID_906_-8" d="M850.6 157.3c0 38.7-17.2 58.2-51.2 58.2s-51-19.6-51-58.2c0-39.1 17-58.4 51-58.4s51.2 19.3 51.2 58.4zm-73.6 0c.2 21.9 7.6 32.9 22.1 32.9 14.5 0 21.7-11.5 21.9-33.8 0-21.9-7.2-32.7-21.7-32.7-14.8 0-22.3 11.3-22.3 33.6z" class="st0"/>
		<path id="XMLID_904_-5" d="M945.5 213c-9.3-.6-14-5.1-14-14v-57.8c-.6-11.7-7-17.4-19.6-17.4-12.6 0-18.9 5.7-19.1 17.4V213h-28.7v-66.1c0-32.1 16.2-48 48.2-48 32.1 0 47.8 15.9 47.6 48V213z" class="st0"/>
	</g>
	<g id="XMLID_899_-9" transform="matrix(.99987 0 0 .99987 .19 0)">
		<path id="XMLID_902_-7" fill="#dadada" d="M153.7 244l36.5 38c1.2 1.2 3.1 2 5 2h89.5c5.2 0 8.3-4.7 5.2-8.1l-83-102.5c-1.8-2-5.2-1.9-6.9.1L153.4 238c-1.6 1.8-1.4 4.2.3 6z"/>
		<linearGradient id="linearGradient936" x1="63.89" x2="63.89" y1="198.13" y2="-214.95" gradientUnits="userSpaceOnUse" xlink:href="#XMLID_15_-2">
			<stop id="stop1003-5" offset="0" stop-color="#145643"/>
			<stop id="stop1005-3" offset="1" stop-color="#14c441"/>
		</linearGradient>
		<path id="XMLID_901_-8" fill="#199053" d="M77 12.8C69.8 4.7 60.2 0 50.1 0 32.8 0 17.5 13.6 12.7 33.4 5.9 62 1.8 91.2.5 120.6l9.8 13.4c17.5 24.1 47.9 25.2 66.7 4.5 2.8-2.3 5.4-4.9 7.8-7.8l42.6-51.5c-.1 0-47.9-64.2-50.4-66.4z"/>
		<path id="XMLID_900_-8" fill="#34cc5b" d="M284.6 0h-73.3c-12.9 0-24.8 5.9-31.7 15.7l-52.4 63.5-42.6 51.5c-2.4 2.9-5 5.4-7.8 7.8-18.8 20.7-49.2 19.6-66.7-4.5L.3 120.6c-1.4 30.8.2 61.7 4.9 92.2v.2c.4 2.3.7 4.7 1.1 7 .1.4.1.8.2 1.2a130.15 130.15 0 0 0 1.4 7.6l1.2 5.9.3 1.4c.5 2.2.9 4.4 1.4 6.6 0 .2.1.4.1.5 4.9 22.3 20.9 38.4 39.9 40.5.2 0 .3.1.5.1 1.3.1 2.5.2 3.8.2h.1c32.3 0 50.7-18.2 59.9-30.8L291.7 11.8c3.7-5.1-.3-11.8-7.1-11.8z"/>
		<g aria-label="STATUS" style="line-height:125%;-inkscape-font-specification:'Montserrat, Normal';font-variant-ligatures:normal;font-variant-caps:normal;font-variant-numeric:normal;font-feature-settings:normal;text-align:start" id="text950" fill="#b3b3b3" stroke-width="3.12" font-family="Montserrat" font-size="118.63" font-weight="400" letter-spacing="0" word-spacing="0">
			<path d="M1039.3 138.08q-6.37 0-10.5 2.62-4.12 2.62-4.12 8 0 5.25 4.12 8.12 4.13 2.75 17.5 6 13.49 3.24 20.24 9.12 6.87 5.87 6.87 17.36 0 11.37-8.62 18.5-8.62 7.12-22.62 7.12-20.49 0-36.36-14.12l9.25-11.12q13.24 11.5 27.49 11.5 7.12 0 11.24-3 4.25-3.13 4.25-8.13 0-5.12-4-7.87-3.87-2.87-13.5-5.12-9.61-2.37-14.61-4.25-5-2-8.87-5.12-7.75-5.87-7.75-18 0-12.11 8.75-18.6 8.87-6.63 21.86-6.63 8.37 0 16.62 2.75 8.25 2.75 14.24 7.74l-7.87 11.12q-3.87-3.5-10.5-5.74-6.61-2.25-13.11-2.25z" style="-inkscape-font-specification:'Montserrat, Normal';font-variant-ligatures:normal;font-variant-caps:normal;font-variant-numeric:normal;font-feature-settings:normal;text-align:start" id="path952"/>
			<path d="M1119.42 140.08v73.84h-14.74v-73.84h-26.5v-13.5h67.73v13.5z" style="-inkscape-font-specification:'Montserrat, Normal';font-variant-ligatures:normal;font-variant-caps:normal;font-variant-numeric:normal;font-feature-settings:normal;text-align:start" id="path954"/>
			<path d="M1160.15 194.05l-8.74 19.87h-15.75l38.48-87.34h15.75l38.48 87.34h-15.74l-8.75-19.87zm37.73-13.62l-15.86-35.98-15.87 35.98z" style="-inkscape-font-specification:'Montserrat, Normal';font-variant-ligatures:normal;font-variant-caps:normal;font-variant-numeric:normal;font-feature-settings:normal;text-align:start" id="path956"/>
			<path d="M1258.58 140.08v73.84h-14.74v-73.84h-26.5v-13.5h67.73v13.5z" style="-inkscape-font-specification:'Montserrat, Normal';font-variant-ligatures:normal;font-variant-caps:normal;font-variant-numeric:normal;font-feature-settings:normal;text-align:start" id="path958"/>
			<path d="M1315.3 193.93q5.99 7 16.24 7 10.24 0 16.24-7 6-7 6-19v-48.35h14.74v48.98q0 18.87-10.37 29.11-10.37 10.12-26.61 10.12-16.25 0-26.62-10.12-10.37-10.24-10.37-29.11v-48.98h14.75v48.36q0 11.99 6 18.99z" style="-inkscape-font-specification:'Montserrat, Normal';font-variant-ligatures:normal;font-variant-caps:normal;font-variant-numeric:normal;font-feature-settings:normal;text-align:start" id="path960"/>
			<path d="M1407.73 138.08q-6.37 0-10.5 2.62-4.12 2.62-4.12 8 0 5.25 4.12 8.12 4.13 2.75 17.5 6 13.49 3.24 20.24 9.12 6.87 5.87 6.87 17.36 0 11.37-8.62 18.5-8.62 7.12-22.62 7.12-20.49 0-36.36-14.12l9.25-11.12q13.24 11.5 27.49 11.5 7.12 0 11.24-3 4.25-3.13 4.25-8.13 0-5.12-4-7.87-3.87-2.87-13.5-5.12-9.61-2.37-14.61-4.25-5-2-8.87-5.12-7.75-5.87-7.75-18 0-12.11 8.75-18.6 8.87-6.63 21.86-6.63 8.37 0 16.62 2.75 8.25 2.75 14.24 7.74l-7.87 11.12q-3.87-3.5-10.5-5.74-6.61-2.25-13.11-2.25z" style="-inkscape-font-specification:'Montserrat, Normal';font-variant-ligatures:normal;font-variant-caps:normal;font-variant-numeric:normal;font-feature-settings:normal;text-align:start" id="path962"/>
		</g>
	</g>
</svg>